#!OML:ASF F:\VICON\USERDATA\INSTALL\rory3\rory3.ASF
:FULLY-SPECIFIED
:DEGREES
540
root 5.65519 17.3429 1.61157 18.9907 2.27269 1.60761
lowerback -15.96 1.95039 11.3211
upperback -14.1688 1.42801 0.535697
thorax -6.35264 -0.202631 -5.60569
lowerneck -3.76359 16.6497 6.97168
upperneck 8.67285 21.7928 1.30692
head 4.16683 11.0673 0.470128
rclavicle 9.93923e-015 -1.59028e-015
rhumerus 37.6352 -20.2963 -4.27006
rradius 109.311
rwrist -51.431
rhand -6.56536 -43.0794
rfingers 7.12502
rthumb 19.2888 -72.1428
lclavicle 9.93923e-015 -1.59028e-015
lhumerus 31.9075 19.2419 -9.03787
lradius 37.5322
lwrist 53.4661
lhand -21.2643 -14.6876
lfingers 7.12502
lthumb 5.11916 15.2305
rfemur -7.47475 12.1269 -9.5652
rtibia 6.62798
rfoot -14.722 -23.4344
rtoes 35.1573
lfemur -17.9804 3.34926 -31.8325
ltibia 18.0971
lfoot -18.0282 1.98561
ltoes 9.19298
541
root 5.65566 17.3437 1.60913 19.011 2.30136 1.63089
lowerback -15.892 1.92048 11.3087
upperback -14.2224 1.40372 0.544645
thorax -6.45563 -0.221038 -5.59259
lowerneck -3.51748 16.6837 7.0571
upperneck 8.54413 21.8582 1.24104
head 4.09545 11.0997 0.412471
rclavicle -1.23246e-014 6.36111e-015
rhumerus 37.248 -20.4348 -3.96663
rradius 109.268
rwrist -50.9155
rhand -6.70201 -42.8851
rfingers 7.12502
rthumb 19.1574 -71.9616
lclavicle -1.23246e-014 6.36111e-015
lhumerus 31.7724 19.173 -9.09627
lradius 37.5033
lwrist 53.7209
lhand -20.5415 -13.993
lfingers 7.12502
lthumb 5.81704 15.9072
rfemur -7.44995 12.0872 -9.57728
rtibia 6.56334
rfoot -15.0139 -23.3511
rtoes 35.8117
lfemur -17.9981 3.38477 -31.8607
ltibia 18.0849
lfoot -18.0518 1.89578
ltoes 9.04217
542
root 5.65621 17.3415 1.61394 18.857 2.19096 1.58473
lowerback -15.7899 1.94415 11.3797
upperback -14.17 1.43702 0.554816
thorax -6.44474 -0.207313 -5.61873
lowerneck -3.34631 16.697 7.16346
upperneck 8.44177 21.8886 1.17032
head 4.05048 11.1147 0.358009
rclavicle 8.34896e-015 -1.74931e-014
rhumerus 36.8351 -20.6308 -3.63312
rradius 109.249
rwrist -50.8021
rhand -7.30386 -42.6029
rfingers 7.12502
rthumb 18.5786 -71.7357
lclavicle 8.34896e-015 -1.74931e-014
lhumerus 31.7196 19.3138 -9.0164
lradius 37.3661
lwrist 53.7571
lhand -19.723 -13.8606
lfingers 7.12502
lthumb 6.60722 16.0163
rfemur -7.33955 12.2679 -9.54218
rtibia 6.52812
rfoot -14.9209 -23.4732
rtoes 35.7677
lfemur -17.8561 3.50554 -31.825
ltibia 18.1046
lfoot -18.0816 1.888
ltoes 9.11887
543
root 5.66232 17.338 1.63639 18.4 1.76371 1.38979
lowerback -15.597 2.09321 11.6665
upperback -13.9382 1.61032 0.579374
thorax -6.25329 -0.123706 -5.73543
lowerneck -3.34156 16.738 7.13834
upperneck 8.31895 21.9408 1.19784
head 3.99949 11.1389 0.363577
rclavicle 9.54166e-015 -4.77083e-015
rhumerus 36.5195 -20.9208 -3.35605
rradius 109.199
rwrist -51.0331
rhand -7.40303 -42.3469
rfingers 7.12502
rthumb 18.4832 -71.4888
lclavicle 9.54166e-015 -4.77083e-015
lhumerus 31.4688 19.3987 -9.17737
lradius 37.3519
lwrist 54.0473
lhand -19.6804 -14.2177
lfingers 7.12502
lthumb 6.64838 15.6579
rfemur -7.08703 12.8991 -9.43751
rtibia 6.50691
rfoot -14.4488 -23.7512
rtoes 34.8544
lfemur -17.3145 3.87627 -31.7075
ltibia 18.1328
lfoot -18.2389 2.08125
ltoes 9.3093
544
root 5.66071 17.3437 1.61508 18.8113 2.27561 1.4725
lowerback -15.7834 1.91537 11.5798
upperback -14.0685 1.37345 0.608881
thorax -6.34912 -0.243899 -5.67829
lowerneck -3.48821 16.826 7.05545
upperneck 8.28626 22.039 1.32317
head 3.98993 11.1881 0.428192
rclavicle 1.15295e-014 -1.27222e-014
rhumerus 36.3091 -21.2815 -3.23675
rradius 109.148
rwrist -51.1605
rhand -6.93451 -42.5794
rfingers 7.12502
rthumb 18.9338 -71.6779
lclavicle 1.15295e-014 -1.27222e-014
lhumerus 31.2246 19.4887 -9.3343
lradius 37.2962
lwrist 54.0772
lhand -20.0196 -14.5488
lfingers 7.12502
lthumb 6.32088 15.3369
rfemur -7.21888 12.2519 -9.38316
rtibia 6.47483
rfoot -15.3019 -23.3142
rtoes 36.4474
lfemur -17.811 3.55618 -31.7055
ltibia 18.1674
lfoot -18.0705 1.84052
ltoes 9.39729
545
root 5.6554 17.3467 1.6071 19.0077 2.34112 1.43859
lowerback -15.8853 1.88619 11.5211
upperback -14.0648 1.32813 0.650966
thorax -6.29767 -0.256383 -5.60338
lowerneck -3.70754 16.9051 7.16526
upperneck 8.29525 22.1251 1.24425
head 4.062 11.2278 0.422415
rclavicle -1.19271e-015 2.38542e-014
rhumerus 36.0506 -21.7967 -3.07654
rradius 109.189
rwrist -51.2502
rhand -6.09519 -43.2934
rfingers 7.12502
rthumb 19.7409 -72.3109
lclavicle -1.19271e-015 2.38542e-014
lhumerus 31.1198 19.7396 -9.31485
lradius 37.1548
lwrist 53.8131
lhand -20.5629 -14.7992
lfingers 7.12502
lthumb 5.79634 15.1015
rfemur -7.42691 12.1137 -9.33991
rtibia 6.46811
rfoot -15.3638 -23.3497
rtoes 36.7648
lfemur -18.1012 3.39085 -31.6338
ltibia 18.215
lfoot -17.9875 1.94486
ltoes 9.4233
546
root 5.64844 17.3489 1.60827 19.1015 2.17724 1.29101
lowerback -15.9769 1.93683 11.5031
upperback -13.9523 1.37577 0.724746
thorax -6.10937 -0.212312 -5.50658
lowerneck -3.66516 16.92 7.43211
upperneck 7.86403 22.1668 0.776963
head 3.99838 11.2297 0.228272
rclavicle -1.11319e-014 0
rhumerus 35.6885 -22.3472 -2.72491
rradius 109.233
rwrist -51.2971
rhand -5.77996 -43.7217
rfingers 7.12502
rthumb 20.0439 -72.7079
lclavicle -1.11319e-014 0
lhumerus 30.971 19.9502 -9.35917
lradius 37.1367
lwrist 53.8551
lhand -21.4602 -14.984
lfingers 7.12502
lthumb 4.92999 14.9386
rfemur -7.84867 12.249 -9.24878
rtibia 6.77602
rfoot -14.7759 -23.6042
rtoes 35.7076
lfemur -18.2768 3.39544 -31.4794
ltibia 18.2464
lfoot -17.9783 2.09496
ltoes 9.29792
547
root 5.64543 17.3507 1.60898 19.1533 2.14018 1.21686
lowerback -15.9998 1.96306 11.508
upperback -13.874 1.40056 0.735913
thorax -6.00179 -0.190589 -5.49417
lowerneck -3.67506 16.8965 7.60197
upperneck 7.54176 22.1424 0.492586
head 3.94445 11.2054 0.105419
rclavicle -1.03368e-014 1.43125e-014
rhumerus 35.2391 -22.7805 -2.34804
rradius 109.207
rwrist -51.3298
rhand -6.22736 -43.5928
rfingers 7.12502
rthumb 19.6138 -72.6234
lclavicle -1.03368e-014 1.43125e-014
lhumerus 30.8488 19.9738 -9.48446
lradius 37.1939
lwrist 54.0511
lhand -21.5375 -14.8267
lfingers 7.12502
lthumb 4.85532 15.0976
rfemur -8.1518 12.2781 -9.18295
rtibia 7.14761
rfoot -14.8027 -23.4331
rtoes 35.4516
lfemur -18.3321 3.3619 -31.3888
ltibia 18.193
lfoot -17.8953 2.14922
ltoes 9.18602
548
root 5.64115 17.3502 1.61048 19.2001 1.99099 1.36657
lowerback -15.9874 1.97929 11.2948
upperback -13.891 1.44527 0.676919
thorax -6.01202 -0.155485 -5.43469
lowerneck -3.77816 16.8984 7.67371
upperneck 7.62968 22.1255 0.557163
head 3.99553 11.2012 0.130579
rclavicle 2.22639e-014 -1.74931e-014
rhumerus 34.8441 -23.0355 -2.07575
rradius 109.152
rwrist -51.4614
rhand -6.95121 -43.3637
rfingers 7.12502
rthumb 18.9177 -72.4637
lclavicle 2.22639e-014 -1.74931e-014
lhumerus 30.8056 19.9676 -9.5193
lradius 37.1467
lwrist 54.1309
lhand -20.3196 -14.4978
lfingers 7.12502
lthumb 6.03129 15.3964
rfemur -8.17761 12.3363 -9.40079
rtibia 7.00213
rfoot -15.4196 -23.0845
rtoes 36.4859
lfemur -18.3593 3.3671 -31.5722
ltibia 18.1541
lfoot -17.8504 2.20555
ltoes 9.17342
549
root 5.63013 17.3469 1.62587 19.0939 1.4391 1.49975
lowerback -16.0031 2.05905 10.9554
upperback -13.8244 1.57505 0.675139
thorax -5.89262 -0.0552219 -5.23218
lowerneck -3.70715 16.9602 7.74319
upperneck 7.60409 22.2074 0.577109
head 3.98227 11.2443 0.125759
rclavicle -7.95139e-016 1.59028e-014
rhumerus 34.5795 -23.2299 -1.8956
rradius 109.109
rwrist -51.5189
rhand -7.22818 -43.4482
rfingers 7.12502
rthumb 18.6514 -72.574
lclavicle -7.95139e-016 1.59028e-014
lhumerus 30.9134 20.3508 -9.1332
lradius 36.8242
lwrist 53.5302
lhand -19.3789 -14.5712
lfingers 7.12502
lthumb 6.93943 15.2951
rfemur -8.27698 12.8093 -9.71892
rtibia 6.87129
rfoot -16.1493 -22.6413
rtoes 37.8653
lfemur -18.1806 3.5645 -31.7949
ltibia 18.0527
lfoot -17.912 2.47803
ltoes 9.05037
550
root 5.65834 17.3403 1.64224 18.6223 1.68342 1.34934
lowerback -15.7039 2.0374 11.6372
upperback -13.6741 1.50498 0.651587
thorax -5.90932 -0.14145 -5.65013
lowerneck -3.85087 17.0344 7.73506
upperneck 7.73179 22.2901 0.642943
head 4.04811 11.2877 0.174918
rclavicle -2.06736e-014 3.02153e-014
rhumerus 34.3523 -23.473 -1.75234
rradius 109.114
rwrist -51.4014
rhand -6.32493 -43.7738
rfingers 7.12502
rthumb 19.52 -72.814
lclavicle -2.06736e-014 3.02153e-014
lhumerus 31.0133 20.8583 -8.62176
lradius 36.4828
lwrist 52.7229
lhand -19.5657 -14.7407
lfingers 7.12502
lthumb 6.7591 15.1314
rfemur -7.57014 12.8737 -9.43203
rtibia 6.89234
rfoot -14.8665 -23.3631
rtoes 35.5299
lfemur -17.4618 3.67264 -31.6538
ltibia 17.9713
lfoot -18.109 2.30276
ltoes 9.11859
551
root 5.65164 17.3392 1.66399 18.474 1.22064 1.30889
lowerback -15.62 2.11414 11.5032
upperback -13.6406 1.62695 0.707611
thorax -5.88878 -0.0649236 -5.50181
lowerneck -4.13254 17.0594 7.67325
upperneck 8.03599 22.2919 0.80202
head 4.18155 11.295 0.27694
rclavicle -3.57812e-015 1.27222e-014
rhumerus 34.1001 -23.6774 -1.53368
rradius 109.132
rwrist -51.3774
rhand -5.71358 -43.9732
rfingers 7.12502
rthumb 20.1077 -72.9527
lclavicle -3.57812e-015 1.27222e-014
lhumerus 30.8266 20.8361 -8.62596
lradius 36.4953
lwrist 52.7817
lhand -20.6855 -14.7669
lfingers 7.12502
lthumb 5.67801 15.1371
rfemur -7.61962 13.3458 -9.5197
rtibia 6.78986
rfoot -12.8049 -24.6976
rtoes 31.9804
lfemur -17.2837 3.85522 -31.669
ltibia 17.9348
lfoot -18.0892 2.6123
ltoes 9.17543
552
root 5.64606 17.3422 1.64373 19.0313 1.80044 1.53351
lowerback -15.8595 1.8898 11.2099
upperback -13.9258 1.35513 0.709026
thorax -6.13369 -0.201444 -5.36402
lowerneck -4.19002 17.0824 7.63895
upperneck 8.17816 22.3109 0.923342
head 4.22348 11.31 0.332722
rclavicle -1.43125e-014 0
rhumerus 33.7917 -23.8412 -1.22915
rradius 109.097
rwrist -51.5237
rhand -5.75959 -43.9649
rfingers 7.12502
rthumb 20.0634 -72.949
lclavicle -1.43125e-014 0
lhumerus 30.5225 20.4329 -8.96855
lradius 36.6471
lwrist 53.1407
lhand -21.7372 -15.0505
lfingers 7.12502
lthumb 4.66253 14.8781
rfemur -7.66508 12.5319 -9.59501
rtibia 6.50521
rfoot -13.6667 -24.403
rtoes 34.0318
lfemur -17.9449 3.55246 -31.8121
ltibia 17.9619
lfoot -17.9606 2.17805
ltoes 8.96424
